M48
; DRILL file {KiCad (5.1.9)-1} date 05/08/21 01:13:41
; FORMAT={-:-/ absolute / inch / decimal}
; #@! TF.CreationDate,2021-05-08T01:13:41+07:00
; #@! TF.GenerationSoftware,Kicad,Pcbnew,(5.1.9)-1
; #@! TF.FileFunction,Plated,1,2,PTH
FMAT,2
INCH
T1C0.0157
T2C0.0276
T3C0.0315
T4C0.0354
T5C0.0394
T6C0.0433
%
G90
G05
T1
X4.8441Y-4.4055
X4.96Y-4.11
X4.96Y-4.44
X5.13Y-5.1115
X5.18Y-5.17
X5.1934Y-4.2215
X5.23Y-5.02
X5.2505Y-3.92
X5.2741Y-3.84
X5.58Y-3.88
X5.66Y-4.3
X5.69Y-5.11
X5.73Y-4.97
X5.75Y-3.91
X5.77Y-4.32
X6.07Y-3.9
X6.13Y-4.3
X6.2705Y-3.91
X6.28Y-4.31
T2
X4.74Y-3.27
X4.74Y-3.57
X5.4Y-3.16
X5.4Y-3.46
X5.9Y-3.16
X5.9Y-3.46
X6.41Y-3.16
X6.41Y-3.46
X6.9Y-3.16
X6.9Y-3.46
T3
X4.49Y-3.9381
X4.49Y-4.135
X4.495Y-3.5431
X4.495Y-3.74
X4.52Y-4.3431
X4.52Y-4.54
X4.74Y-3.8
X4.74Y-3.9
X4.74Y-4.0
X4.74Y-4.1
X4.74Y-4.2
X4.74Y-4.3
X4.74Y-4.4
X4.74Y-4.5
X4.74Y-4.6
X4.74Y-4.7
X4.74Y-4.8
X4.74Y-4.9
X4.74Y-5.0
X4.74Y-5.1
X5.04Y-3.8
X5.04Y-3.9
X5.04Y-4.0
X5.04Y-4.1
X5.04Y-4.2
X5.04Y-4.3
X5.04Y-4.4
X5.04Y-4.5
X5.04Y-4.6
X5.04Y-4.7
X5.04Y-4.8
X5.04Y-4.9
X5.04Y-5.0
X5.04Y-5.1
X5.0931Y-3.155
X5.15Y-4.3931
X5.15Y-4.59
X5.29Y-3.155
T4
X4.92Y-3.47
X5.02Y-3.47
T5
X4.44Y-3.165
X4.45Y-3.36
X4.54Y-3.165
X4.55Y-3.36
T6
X4.54Y-4.75
X4.54Y-4.85
X4.54Y-4.95
X5.2741Y-3.6628
X5.2741Y-3.84
X5.2741Y-4.0728
X5.2741Y-4.25
X5.2741Y-4.4828
X5.2741Y-4.66
X5.2741Y-4.8928
X5.2741Y-5.07
X5.53Y-3.6628
X5.53Y-3.84
X5.53Y-4.0728
X5.53Y-4.25
X5.53Y-4.4828
X5.53Y-4.66
X5.53Y-4.8928
X5.53Y-5.07
X5.7741Y-3.6628
X5.7741Y-3.84
X5.7741Y-4.0728
X5.7741Y-4.25
X5.7741Y-4.4828
X5.7741Y-4.66
X5.7741Y-4.8928
X5.7741Y-5.07
X6.03Y-3.6628
X6.03Y-3.84
X6.03Y-4.0728
X6.03Y-4.25
X6.03Y-4.4828
X6.03Y-4.66
X6.03Y-4.8928
X6.03Y-5.07
X6.2941Y-3.6628
X6.2941Y-3.84
X6.2941Y-4.0728
X6.2941Y-4.25
X6.2941Y-4.4828
X6.2941Y-4.66
X6.2941Y-4.8928
X6.2941Y-5.07
X6.55Y-3.6628
X6.55Y-3.84
X6.55Y-4.0728
X6.55Y-4.25
X6.55Y-4.4828
X6.55Y-4.66
X6.55Y-4.8928
X6.55Y-5.07
X6.7641Y-4.4828
X6.7641Y-4.66
X6.7641Y-4.8928
X6.7641Y-5.07
X6.7741Y-3.6628
X6.7741Y-3.84
X6.7741Y-4.0728
X6.7741Y-4.25
X7.02Y-4.4828
X7.02Y-4.66
X7.02Y-4.8928
X7.02Y-5.07
X7.03Y-3.6628
X7.03Y-3.84
X7.03Y-4.0728
X7.03Y-4.25
T0
M30
